<mxfile host="app.diagrams.net" modified="2023-11-22T11:55:12.894Z" agent="Mozilla/5.0 (X11; Linux x86_64) AppleWebKit/537.36 (KHTML, like Gecko) Chrome/118.0.0.0 Safari/537.36" etag="2TAFO2iSM3WJShaaRUkU" version="22.1.3" type="google">
  <diagram id="C5RBs43oDa-KdzZeNtuy" name="Page-1">
    <mxGraphModel grid="1" page="1" gridSize="10" guides="1" tooltips="1" connect="1" arrows="1" fold="1" pageScale="1" pageWidth="827" pageHeight="1169" math="0" shadow="0">
      <root>
        <mxCell id="WIyWlLk6GJQsqaUBKTNV-0" />
        <mxCell id="WIyWlLk6GJQsqaUBKTNV-1" parent="WIyWlLk6GJQsqaUBKTNV-0" />
        <mxCell id="yS_mgZMKnU_sIMwnIw-F-0" value="Usuario" style="swimlane;fontStyle=1;align=center;verticalAlign=top;childLayout=stackLayout;horizontal=1;startSize=26;horizontalStack=0;resizeParent=1;resizeParentMax=0;resizeLast=0;collapsible=1;marginBottom=0;whiteSpace=wrap;html=1;" vertex="1" parent="WIyWlLk6GJQsqaUBKTNV-1">
          <mxGeometry x="410" y="-716" width="160" height="160" as="geometry" />
        </mxCell>
        <mxCell id="yS_mgZMKnU_sIMwnIw-F-1" value="- matricula: string&lt;br&gt;- nome: string&lt;br&gt;- email: string&lt;br&gt;- numero: string&lt;br&gt;- Posse: posse" style="text;strokeColor=none;fillColor=none;align=left;verticalAlign=top;spacingLeft=4;spacingRight=4;overflow=hidden;rotatable=0;points=[[0,0.5],[1,0.5]];portConstraint=eastwest;whiteSpace=wrap;html=1;" vertex="1" parent="yS_mgZMKnU_sIMwnIw-F-0">
          <mxGeometry y="26" width="160" height="94" as="geometry" />
        </mxCell>
        <mxCell id="yS_mgZMKnU_sIMwnIw-F-2" value="" style="line;strokeWidth=1;fillColor=none;align=left;verticalAlign=middle;spacingTop=-1;spacingLeft=3;spacingRight=3;rotatable=0;labelPosition=right;points=[];portConstraint=eastwest;strokeColor=inherit;" vertex="1" parent="yS_mgZMKnU_sIMwnIw-F-0">
          <mxGeometry y="120" width="160" height="8" as="geometry" />
        </mxCell>
        <mxCell id="yS_mgZMKnU_sIMwnIw-F-3" value="+ construtor(args): type" style="text;strokeColor=none;fillColor=none;align=left;verticalAlign=top;spacingLeft=4;spacingRight=4;overflow=hidden;rotatable=0;points=[[0,0.5],[1,0.5]];portConstraint=eastwest;whiteSpace=wrap;html=1;" vertex="1" parent="yS_mgZMKnU_sIMwnIw-F-0">
          <mxGeometry y="128" width="160" height="32" as="geometry" />
        </mxCell>
        <mxCell id="yS_mgZMKnU_sIMwnIw-F-4" value="Aluno" style="swimlane;fontStyle=1;align=center;verticalAlign=top;childLayout=stackLayout;horizontal=1;startSize=26;horizontalStack=0;resizeParent=1;resizeParentMax=0;resizeLast=0;collapsible=1;marginBottom=0;whiteSpace=wrap;html=1;" vertex="1" parent="WIyWlLk6GJQsqaUBKTNV-1">
          <mxGeometry x="330" y="-446" width="140" height="86" as="geometry" />
        </mxCell>
        <mxCell id="yS_mgZMKnU_sIMwnIw-F-5" value="+ field: type" style="text;strokeColor=none;fillColor=none;align=left;verticalAlign=top;spacingLeft=4;spacingRight=4;overflow=hidden;rotatable=0;points=[[0,0.5],[1,0.5]];portConstraint=eastwest;whiteSpace=wrap;html=1;" vertex="1" parent="yS_mgZMKnU_sIMwnIw-F-4">
          <mxGeometry y="26" width="140" height="26" as="geometry" />
        </mxCell>
        <mxCell id="yS_mgZMKnU_sIMwnIw-F-6" value="" style="line;strokeWidth=1;fillColor=none;align=left;verticalAlign=middle;spacingTop=-1;spacingLeft=3;spacingRight=3;rotatable=0;labelPosition=right;points=[];portConstraint=eastwest;strokeColor=inherit;" vertex="1" parent="yS_mgZMKnU_sIMwnIw-F-4">
          <mxGeometry y="52" width="140" height="8" as="geometry" />
        </mxCell>
        <mxCell id="yS_mgZMKnU_sIMwnIw-F-7" value="+ method(type): type" style="text;strokeColor=none;fillColor=none;align=left;verticalAlign=top;spacingLeft=4;spacingRight=4;overflow=hidden;rotatable=0;points=[[0,0.5],[1,0.5]];portConstraint=eastwest;whiteSpace=wrap;html=1;" vertex="1" parent="yS_mgZMKnU_sIMwnIw-F-4">
          <mxGeometry y="60" width="140" height="26" as="geometry" />
        </mxCell>
        <mxCell id="yS_mgZMKnU_sIMwnIw-F-8" value="Professor" style="swimlane;fontStyle=1;align=center;verticalAlign=top;childLayout=stackLayout;horizontal=1;startSize=26;horizontalStack=0;resizeParent=1;resizeParentMax=0;resizeLast=0;collapsible=1;marginBottom=0;whiteSpace=wrap;html=1;" vertex="1" parent="WIyWlLk6GJQsqaUBKTNV-1">
          <mxGeometry x="620" y="-446" width="160" height="86" as="geometry" />
        </mxCell>
        <mxCell id="yS_mgZMKnU_sIMwnIw-F-9" value="+ field: type" style="text;strokeColor=none;fillColor=none;align=left;verticalAlign=top;spacingLeft=4;spacingRight=4;overflow=hidden;rotatable=0;points=[[0,0.5],[1,0.5]];portConstraint=eastwest;whiteSpace=wrap;html=1;" vertex="1" parent="yS_mgZMKnU_sIMwnIw-F-8">
          <mxGeometry y="26" width="160" height="26" as="geometry" />
        </mxCell>
        <mxCell id="yS_mgZMKnU_sIMwnIw-F-10" value="" style="line;strokeWidth=1;fillColor=none;align=left;verticalAlign=middle;spacingTop=-1;spacingLeft=3;spacingRight=3;rotatable=0;labelPosition=right;points=[];portConstraint=eastwest;strokeColor=inherit;" vertex="1" parent="yS_mgZMKnU_sIMwnIw-F-8">
          <mxGeometry y="52" width="160" height="8" as="geometry" />
        </mxCell>
        <mxCell id="yS_mgZMKnU_sIMwnIw-F-11" value="+ method(type): type" style="text;strokeColor=none;fillColor=none;align=left;verticalAlign=top;spacingLeft=4;spacingRight=4;overflow=hidden;rotatable=0;points=[[0,0.5],[1,0.5]];portConstraint=eastwest;whiteSpace=wrap;html=1;" vertex="1" parent="yS_mgZMKnU_sIMwnIw-F-8">
          <mxGeometry y="60" width="160" height="26" as="geometry" />
        </mxCell>
        <mxCell id="yS_mgZMKnU_sIMwnIw-F-12" value="Coordenador" style="swimlane;fontStyle=1;align=center;verticalAlign=top;childLayout=stackLayout;horizontal=1;startSize=26;horizontalStack=0;resizeParent=1;resizeParentMax=0;resizeLast=0;collapsible=1;marginBottom=0;whiteSpace=wrap;html=1;" vertex="1" parent="WIyWlLk6GJQsqaUBKTNV-1">
          <mxGeometry x="160" y="-446" width="160" height="86" as="geometry" />
        </mxCell>
        <mxCell id="yS_mgZMKnU_sIMwnIw-F-13" value="+ field: type" style="text;strokeColor=none;fillColor=none;align=left;verticalAlign=top;spacingLeft=4;spacingRight=4;overflow=hidden;rotatable=0;points=[[0,0.5],[1,0.5]];portConstraint=eastwest;whiteSpace=wrap;html=1;" vertex="1" parent="yS_mgZMKnU_sIMwnIw-F-12">
          <mxGeometry y="26" width="160" height="26" as="geometry" />
        </mxCell>
        <mxCell id="yS_mgZMKnU_sIMwnIw-F-14" value="" style="line;strokeWidth=1;fillColor=none;align=left;verticalAlign=middle;spacingTop=-1;spacingLeft=3;spacingRight=3;rotatable=0;labelPosition=right;points=[];portConstraint=eastwest;strokeColor=inherit;" vertex="1" parent="yS_mgZMKnU_sIMwnIw-F-12">
          <mxGeometry y="52" width="160" height="8" as="geometry" />
        </mxCell>
        <mxCell id="yS_mgZMKnU_sIMwnIw-F-15" value="+ method(type): type" style="text;strokeColor=none;fillColor=none;align=left;verticalAlign=top;spacingLeft=4;spacingRight=4;overflow=hidden;rotatable=0;points=[[0,0.5],[1,0.5]];portConstraint=eastwest;whiteSpace=wrap;html=1;" vertex="1" parent="yS_mgZMKnU_sIMwnIw-F-12">
          <mxGeometry y="60" width="160" height="26" as="geometry" />
        </mxCell>
        <mxCell id="yS_mgZMKnU_sIMwnIw-F-16" value="Extends" style="endArrow=block;endSize=16;endFill=0;html=1;rounded=0;exitX=1;exitY=0;exitDx=0;exitDy=0;entryX=0.006;entryY=0.938;entryDx=0;entryDy=0;entryPerimeter=0;" edge="1" parent="WIyWlLk6GJQsqaUBKTNV-1" source="yS_mgZMKnU_sIMwnIw-F-12" target="yS_mgZMKnU_sIMwnIw-F-3">
          <mxGeometry width="160" relative="1" as="geometry">
            <mxPoint x="480" y="-496" as="sourcePoint" />
            <mxPoint x="540" y="-546" as="targetPoint" />
          </mxGeometry>
        </mxCell>
        <mxCell id="yS_mgZMKnU_sIMwnIw-F-17" value="Extends" style="endArrow=block;endSize=16;endFill=0;html=1;rounded=0;exitX=0.5;exitY=0;exitDx=0;exitDy=0;entryX=0.269;entryY=1.188;entryDx=0;entryDy=0;entryPerimeter=0;" edge="1" parent="WIyWlLk6GJQsqaUBKTNV-1" source="yS_mgZMKnU_sIMwnIw-F-4" target="yS_mgZMKnU_sIMwnIw-F-3">
          <mxGeometry width="160" relative="1" as="geometry">
            <mxPoint x="480" y="-486" as="sourcePoint" />
            <mxPoint x="570" y="-536" as="targetPoint" />
          </mxGeometry>
        </mxCell>
        <mxCell id="yS_mgZMKnU_sIMwnIw-F-18" value="Extends" style="endArrow=block;endSize=16;endFill=0;html=1;rounded=0;exitX=0;exitY=0;exitDx=0;exitDy=0;entryX=0.994;entryY=1.063;entryDx=0;entryDy=0;entryPerimeter=0;" edge="1" parent="WIyWlLk6GJQsqaUBKTNV-1" source="yS_mgZMKnU_sIMwnIw-F-8" target="yS_mgZMKnU_sIMwnIw-F-3">
          <mxGeometry width="160" relative="1" as="geometry">
            <mxPoint x="490" y="-476" as="sourcePoint" />
            <mxPoint x="670" y="-536" as="targetPoint" />
          </mxGeometry>
        </mxCell>
        <mxCell id="yS_mgZMKnU_sIMwnIw-F-19" value="Vigilante" style="swimlane;fontStyle=1;align=center;verticalAlign=top;childLayout=stackLayout;horizontal=1;startSize=26;horizontalStack=0;resizeParent=1;resizeParentMax=0;resizeLast=0;collapsible=1;marginBottom=0;whiteSpace=wrap;html=1;" vertex="1" parent="WIyWlLk6GJQsqaUBKTNV-1">
          <mxGeometry x="480" y="-446" width="130" height="86" as="geometry" />
        </mxCell>
        <mxCell id="yS_mgZMKnU_sIMwnIw-F-20" value="+ field: type" style="text;strokeColor=none;fillColor=none;align=left;verticalAlign=top;spacingLeft=4;spacingRight=4;overflow=hidden;rotatable=0;points=[[0,0.5],[1,0.5]];portConstraint=eastwest;whiteSpace=wrap;html=1;" vertex="1" parent="yS_mgZMKnU_sIMwnIw-F-19">
          <mxGeometry y="26" width="130" height="26" as="geometry" />
        </mxCell>
        <mxCell id="yS_mgZMKnU_sIMwnIw-F-21" value="" style="line;strokeWidth=1;fillColor=none;align=left;verticalAlign=middle;spacingTop=-1;spacingLeft=3;spacingRight=3;rotatable=0;labelPosition=right;points=[];portConstraint=eastwest;strokeColor=inherit;" vertex="1" parent="yS_mgZMKnU_sIMwnIw-F-19">
          <mxGeometry y="52" width="130" height="8" as="geometry" />
        </mxCell>
        <mxCell id="yS_mgZMKnU_sIMwnIw-F-22" value="+ method(type): type" style="text;strokeColor=none;fillColor=none;align=left;verticalAlign=top;spacingLeft=4;spacingRight=4;overflow=hidden;rotatable=0;points=[[0,0.5],[1,0.5]];portConstraint=eastwest;whiteSpace=wrap;html=1;" vertex="1" parent="yS_mgZMKnU_sIMwnIw-F-19">
          <mxGeometry y="60" width="130" height="26" as="geometry" />
        </mxCell>
        <mxCell id="yS_mgZMKnU_sIMwnIw-F-23" value="Extends" style="endArrow=block;endSize=16;endFill=0;html=1;rounded=0;exitX=0.5;exitY=0;exitDx=0;exitDy=0;entryX=0.625;entryY=1.094;entryDx=0;entryDy=0;entryPerimeter=0;" edge="1" parent="WIyWlLk6GJQsqaUBKTNV-1" source="yS_mgZMKnU_sIMwnIw-F-19" target="yS_mgZMKnU_sIMwnIw-F-3">
          <mxGeometry width="160" relative="1" as="geometry">
            <mxPoint x="790" y="-446" as="sourcePoint" />
            <mxPoint x="590" y="-536" as="targetPoint" />
          </mxGeometry>
        </mxCell>
        <mxCell id="yS_mgZMKnU_sIMwnIw-F-24" value="Numero" style="swimlane;fontStyle=1;align=center;verticalAlign=top;childLayout=stackLayout;horizontal=1;startSize=26;horizontalStack=0;resizeParent=1;resizeParentMax=0;resizeLast=0;collapsible=1;marginBottom=0;whiteSpace=wrap;html=1;" vertex="1" parent="WIyWlLk6GJQsqaUBKTNV-1">
          <mxGeometry x="160" y="-716" width="160" height="100" as="geometry" />
        </mxCell>
        <mxCell id="yS_mgZMKnU_sIMwnIw-F-25" value="- numero: string&lt;br&gt;- whatsapp: boolean" style="text;strokeColor=none;fillColor=none;align=left;verticalAlign=top;spacingLeft=4;spacingRight=4;overflow=hidden;rotatable=0;points=[[0,0.5],[1,0.5]];portConstraint=eastwest;whiteSpace=wrap;html=1;" vertex="1" parent="yS_mgZMKnU_sIMwnIw-F-24">
          <mxGeometry y="26" width="160" height="44" as="geometry" />
        </mxCell>
        <mxCell id="yS_mgZMKnU_sIMwnIw-F-26" value="" style="line;strokeWidth=1;fillColor=none;align=left;verticalAlign=middle;spacingTop=-1;spacingLeft=3;spacingRight=3;rotatable=0;labelPosition=right;points=[];portConstraint=eastwest;strokeColor=inherit;" vertex="1" parent="yS_mgZMKnU_sIMwnIw-F-24">
          <mxGeometry y="70" width="160" height="8" as="geometry" />
        </mxCell>
        <mxCell id="yS_mgZMKnU_sIMwnIw-F-27" value="+ construtor(args)" style="text;strokeColor=none;fillColor=none;align=left;verticalAlign=top;spacingLeft=4;spacingRight=4;overflow=hidden;rotatable=0;points=[[0,0.5],[1,0.5]];portConstraint=eastwest;whiteSpace=wrap;html=1;" vertex="1" parent="yS_mgZMKnU_sIMwnIw-F-24">
          <mxGeometry y="78" width="160" height="22" as="geometry" />
        </mxCell>
        <mxCell id="yS_mgZMKnU_sIMwnIw-F-30" style="edgeStyle=orthogonalEdgeStyle;rounded=0;orthogonalLoop=1;jettySize=auto;html=1;entryX=1.025;entryY=-0.227;entryDx=0;entryDy=0;entryPerimeter=0;" edge="1" parent="WIyWlLk6GJQsqaUBKTNV-1" source="yS_mgZMKnU_sIMwnIw-F-1" target="yS_mgZMKnU_sIMwnIw-F-27">
          <mxGeometry relative="1" as="geometry">
            <mxPoint x="400" y="-623" as="targetPoint" />
          </mxGeometry>
        </mxCell>
        <mxCell id="yS_mgZMKnU_sIMwnIw-F-31" value="1..*" style="edgeLabel;html=1;align=center;verticalAlign=middle;resizable=0;points=[];" connectable="0" vertex="1" parent="yS_mgZMKnU_sIMwnIw-F-30">
          <mxGeometry x="0.7241" relative="1" as="geometry">
            <mxPoint y="-13" as="offset" />
          </mxGeometry>
        </mxCell>
        <mxCell id="yS_mgZMKnU_sIMwnIw-F-32" value="1" style="edgeLabel;html=1;align=center;verticalAlign=middle;resizable=0;points=[];" connectable="0" vertex="1" parent="yS_mgZMKnU_sIMwnIw-F-30">
          <mxGeometry x="-0.7414" relative="1" as="geometry">
            <mxPoint y="-13" as="offset" />
          </mxGeometry>
        </mxCell>
        <mxCell id="yS_mgZMKnU_sIMwnIw-F-33" value="Chave" style="swimlane;fontStyle=1;align=center;verticalAlign=top;childLayout=stackLayout;horizontal=1;startSize=26;horizontalStack=0;resizeParent=1;resizeParentMax=0;resizeLast=0;collapsible=1;marginBottom=0;whiteSpace=wrap;html=1;" vertex="1" parent="WIyWlLk6GJQsqaUBKTNV-1">
          <mxGeometry x="943" y="-716" width="150" height="170" as="geometry" />
        </mxCell>
        <mxCell id="yS_mgZMKnU_sIMwnIw-F-34" value="- identificador: String&lt;br&gt;- departamento: Departamento&lt;br&gt;- copia: Boolean&lt;br&gt;" style="text;strokeColor=none;fillColor=none;align=left;verticalAlign=top;spacingLeft=4;spacingRight=4;overflow=hidden;rotatable=0;points=[[0,0.5],[1,0.5]];portConstraint=eastwest;whiteSpace=wrap;html=1;" vertex="1" parent="yS_mgZMKnU_sIMwnIw-F-33">
          <mxGeometry y="26" width="150" height="74" as="geometry" />
        </mxCell>
        <mxCell id="yS_mgZMKnU_sIMwnIw-F-35" value="" style="line;strokeWidth=1;fillColor=none;align=left;verticalAlign=middle;spacingTop=-1;spacingLeft=3;spacingRight=3;rotatable=0;labelPosition=right;points=[];portConstraint=eastwest;strokeColor=inherit;" vertex="1" parent="yS_mgZMKnU_sIMwnIw-F-33">
          <mxGeometry y="100" width="150" height="8" as="geometry" />
        </mxCell>
        <mxCell id="yS_mgZMKnU_sIMwnIw-F-36" value="+ construtor(args)&lt;br&gt;+ pesquisar (chave): string" style="text;strokeColor=none;fillColor=none;align=left;verticalAlign=top;spacingLeft=4;spacingRight=4;overflow=hidden;rotatable=0;points=[[0,0.5],[1,0.5]];portConstraint=eastwest;whiteSpace=wrap;html=1;" vertex="1" parent="yS_mgZMKnU_sIMwnIw-F-33">
          <mxGeometry y="108" width="150" height="62" as="geometry" />
        </mxCell>
        <mxCell id="yS_mgZMKnU_sIMwnIw-F-37" value="Posse" style="swimlane;fontStyle=1;align=center;verticalAlign=top;childLayout=stackLayout;horizontal=1;startSize=26;horizontalStack=0;resizeParent=1;resizeParentMax=0;resizeLast=0;collapsible=1;marginBottom=0;whiteSpace=wrap;html=1;" vertex="1" parent="WIyWlLk6GJQsqaUBKTNV-1">
          <mxGeometry x="693" y="-716" width="150" height="144" as="geometry" />
        </mxCell>
        <mxCell id="yS_mgZMKnU_sIMwnIw-F-38" value="-usuario: Usuario&lt;br&gt;- Chave: String&lt;br&gt;- Recebimento: DataTime&lt;br&gt;- Devolucao: DataTime&lt;br&gt;- Pendencia: Boolean" style="text;strokeColor=none;fillColor=none;align=left;verticalAlign=top;spacingLeft=4;spacingRight=4;overflow=hidden;rotatable=0;points=[[0,0.5],[1,0.5]];portConstraint=eastwest;whiteSpace=wrap;html=1;" vertex="1" parent="yS_mgZMKnU_sIMwnIw-F-37">
          <mxGeometry y="26" width="150" height="84" as="geometry" />
        </mxCell>
        <mxCell id="yS_mgZMKnU_sIMwnIw-F-39" value="" style="line;strokeWidth=1;fillColor=none;align=left;verticalAlign=middle;spacingTop=-1;spacingLeft=3;spacingRight=3;rotatable=0;labelPosition=right;points=[];portConstraint=eastwest;strokeColor=inherit;" vertex="1" parent="yS_mgZMKnU_sIMwnIw-F-37">
          <mxGeometry y="110" width="150" height="8" as="geometry" />
        </mxCell>
        <mxCell id="yS_mgZMKnU_sIMwnIw-F-40" value="+ Construtor(args)" style="text;strokeColor=none;fillColor=none;align=left;verticalAlign=top;spacingLeft=4;spacingRight=4;overflow=hidden;rotatable=0;points=[[0,0.5],[1,0.5]];portConstraint=eastwest;whiteSpace=wrap;html=1;" vertex="1" parent="yS_mgZMKnU_sIMwnIw-F-37">
          <mxGeometry y="118" width="150" height="26" as="geometry" />
        </mxCell>
        <mxCell id="yS_mgZMKnU_sIMwnIw-F-47" style="edgeStyle=orthogonalEdgeStyle;rounded=0;orthogonalLoop=1;jettySize=auto;html=1;entryX=-0.023;entryY=0.778;entryDx=0;entryDy=0;entryPerimeter=0;endArrow=none;endFill=0;" edge="1" parent="WIyWlLk6GJQsqaUBKTNV-1" source="yS_mgZMKnU_sIMwnIw-F-38" target="yS_mgZMKnU_sIMwnIw-F-34">
          <mxGeometry relative="1" as="geometry" />
        </mxCell>
        <mxCell id="yS_mgZMKnU_sIMwnIw-F-48" value="0..*" style="edgeLabel;html=1;align=center;verticalAlign=middle;resizable=0;points=[];" connectable="0" vertex="1" parent="yS_mgZMKnU_sIMwnIw-F-47">
          <mxGeometry x="-0.4731" y="-1" relative="1" as="geometry">
            <mxPoint x="-11" y="-12" as="offset" />
          </mxGeometry>
        </mxCell>
        <mxCell id="yS_mgZMKnU_sIMwnIw-F-49" value="1" style="edgeLabel;html=1;align=center;verticalAlign=middle;resizable=0;points=[];" connectable="0" vertex="1" parent="yS_mgZMKnU_sIMwnIw-F-47">
          <mxGeometry x="0.4401" y="-4" relative="1" as="geometry">
            <mxPoint x="20" y="-12" as="offset" />
          </mxGeometry>
        </mxCell>
        <mxCell id="yS_mgZMKnU_sIMwnIw-F-43" style="edgeStyle=orthogonalEdgeStyle;rounded=0;orthogonalLoop=1;jettySize=auto;html=1;entryX=-0.014;entryY=0.571;entryDx=0;entryDy=0;entryPerimeter=0;endArrow=none;endFill=0;" edge="1" parent="WIyWlLk6GJQsqaUBKTNV-1" source="yS_mgZMKnU_sIMwnIw-F-1" target="yS_mgZMKnU_sIMwnIw-F-38">
          <mxGeometry relative="1" as="geometry">
            <mxPoint x="640" y="-643" as="targetPoint" />
            <Array as="points">
              <mxPoint x="691" y="-643" />
            </Array>
          </mxGeometry>
        </mxCell>
        <mxCell id="yS_mgZMKnU_sIMwnIw-F-50" value="0..*" style="edgeLabel;html=1;align=center;verticalAlign=middle;resizable=0;points=[];" connectable="0" vertex="1" parent="yS_mgZMKnU_sIMwnIw-F-43">
          <mxGeometry x="-0.6116" y="-1" relative="1" as="geometry">
            <mxPoint x="-11" y="-14" as="offset" />
          </mxGeometry>
        </mxCell>
        <mxCell id="yS_mgZMKnU_sIMwnIw-F-51" value="0..1" style="edgeLabel;html=1;align=center;verticalAlign=middle;resizable=0;points=[];" connectable="0" vertex="1" parent="yS_mgZMKnU_sIMwnIw-F-43">
          <mxGeometry x="0.5569" relative="1" as="geometry">
            <mxPoint x="5" y="-13" as="offset" />
          </mxGeometry>
        </mxCell>
        <mxCell id="yS_mgZMKnU_sIMwnIw-F-56" style="edgeStyle=orthogonalEdgeStyle;rounded=0;orthogonalLoop=1;jettySize=auto;html=1;entryX=1.033;entryY=0.231;entryDx=0;entryDy=0;entryPerimeter=0;" edge="1" parent="WIyWlLk6GJQsqaUBKTNV-1" source="yS_mgZMKnU_sIMwnIw-F-52" target="yS_mgZMKnU_sIMwnIw-F-34">
          <mxGeometry relative="1" as="geometry">
            <mxPoint x="1023" y="-576" as="targetPoint" />
          </mxGeometry>
        </mxCell>
        <mxCell id="yS_mgZMKnU_sIMwnIw-F-52" value="Departamento" style="swimlane;fontStyle=1;align=center;verticalAlign=top;childLayout=stackLayout;horizontal=1;startSize=26;horizontalStack=0;resizeParent=1;resizeParentMax=0;resizeLast=0;collapsible=1;marginBottom=0;whiteSpace=wrap;html=1;" vertex="1" parent="WIyWlLk6GJQsqaUBKTNV-1">
          <mxGeometry x="1193" y="-730" width="160" height="114" as="geometry" />
        </mxCell>
        <mxCell id="yS_mgZMKnU_sIMwnIw-F-53" value="- bloco: String&lt;br&gt;- sala: String" style="text;strokeColor=none;fillColor=none;align=left;verticalAlign=top;spacingLeft=4;spacingRight=4;overflow=hidden;rotatable=0;points=[[0,0.5],[1,0.5]];portConstraint=eastwest;whiteSpace=wrap;html=1;" vertex="1" parent="yS_mgZMKnU_sIMwnIw-F-52">
          <mxGeometry y="26" width="160" height="54" as="geometry" />
        </mxCell>
        <mxCell id="yS_mgZMKnU_sIMwnIw-F-54" value="" style="line;strokeWidth=1;fillColor=none;align=left;verticalAlign=middle;spacingTop=-1;spacingLeft=3;spacingRight=3;rotatable=0;labelPosition=right;points=[];portConstraint=eastwest;strokeColor=inherit;" vertex="1" parent="yS_mgZMKnU_sIMwnIw-F-52">
          <mxGeometry y="80" width="160" height="8" as="geometry" />
        </mxCell>
        <mxCell id="yS_mgZMKnU_sIMwnIw-F-55" value="+ construtor(args)" style="text;strokeColor=none;fillColor=none;align=left;verticalAlign=top;spacingLeft=4;spacingRight=4;overflow=hidden;rotatable=0;points=[[0,0.5],[1,0.5]];portConstraint=eastwest;whiteSpace=wrap;html=1;" vertex="1" parent="yS_mgZMKnU_sIMwnIw-F-52">
          <mxGeometry y="88" width="160" height="26" as="geometry" />
        </mxCell>
        <mxCell id="yS_mgZMKnU_sIMwnIw-F-61" style="edgeStyle=orthogonalEdgeStyle;rounded=0;orthogonalLoop=1;jettySize=auto;html=1;" edge="1" parent="WIyWlLk6GJQsqaUBKTNV-1" source="yS_mgZMKnU_sIMwnIw-F-57">
          <mxGeometry relative="1" as="geometry">
            <mxPoint x="1023" y="-540" as="targetPoint" />
          </mxGeometry>
        </mxCell>
        <mxCell id="yS_mgZMKnU_sIMwnIw-F-57" value="Autorizacao" style="swimlane;fontStyle=1;align=center;verticalAlign=top;childLayout=stackLayout;horizontal=1;startSize=26;horizontalStack=0;resizeParent=1;resizeParentMax=0;resizeLast=0;collapsible=1;marginBottom=0;whiteSpace=wrap;html=1;" vertex="1" parent="WIyWlLk6GJQsqaUBKTNV-1">
          <mxGeometry x="943" y="-486" width="160" height="114" as="geometry" />
        </mxCell>
        <mxCell id="yS_mgZMKnU_sIMwnIw-F-58" value="- cordenador: Cordenador&lt;br&gt;- chave: Chave&lt;br&gt;- usuario: Usuario" style="text;strokeColor=none;fillColor=none;align=left;verticalAlign=top;spacingLeft=4;spacingRight=4;overflow=hidden;rotatable=0;points=[[0,0.5],[1,0.5]];portConstraint=eastwest;whiteSpace=wrap;html=1;" vertex="1" parent="yS_mgZMKnU_sIMwnIw-F-57">
          <mxGeometry y="26" width="160" height="54" as="geometry" />
        </mxCell>
        <mxCell id="yS_mgZMKnU_sIMwnIw-F-59" value="" style="line;strokeWidth=1;fillColor=none;align=left;verticalAlign=middle;spacingTop=-1;spacingLeft=3;spacingRight=3;rotatable=0;labelPosition=right;points=[];portConstraint=eastwest;strokeColor=inherit;" vertex="1" parent="yS_mgZMKnU_sIMwnIw-F-57">
          <mxGeometry y="80" width="160" height="8" as="geometry" />
        </mxCell>
        <mxCell id="yS_mgZMKnU_sIMwnIw-F-60" value="+ construtor(args): type" style="text;strokeColor=none;fillColor=none;align=left;verticalAlign=top;spacingLeft=4;spacingRight=4;overflow=hidden;rotatable=0;points=[[0,0.5],[1,0.5]];portConstraint=eastwest;whiteSpace=wrap;html=1;" vertex="1" parent="yS_mgZMKnU_sIMwnIw-F-57">
          <mxGeometry y="88" width="160" height="26" as="geometry" />
        </mxCell>
        <mxCell id="v8akjDSQRyrgU_2qmIEB-0" value="Transferir" style="swimlane;fontStyle=1;align=center;verticalAlign=top;childLayout=stackLayout;horizontal=1;startSize=26;horizontalStack=0;resizeParent=1;resizeParentMax=0;resizeLast=0;collapsible=1;marginBottom=0;whiteSpace=wrap;html=1;" vertex="1" parent="WIyWlLk6GJQsqaUBKTNV-1">
          <mxGeometry x="680" y="-970" width="180" height="150" as="geometry" />
        </mxCell>
        <mxCell id="v8akjDSQRyrgU_2qmIEB-1" value="- Possuidor: usuario&amp;nbsp;&lt;br&gt;- Recebedor: usuario&amp;nbsp;&lt;br&gt;- DataTransfer: DataTime&lt;br&gt;- Chave: chave" style="text;strokeColor=none;fillColor=none;align=left;verticalAlign=top;spacingLeft=4;spacingRight=4;overflow=hidden;rotatable=0;points=[[0,0.5],[1,0.5]];portConstraint=eastwest;whiteSpace=wrap;html=1;" vertex="1" parent="v8akjDSQRyrgU_2qmIEB-0">
          <mxGeometry y="26" width="180" height="74" as="geometry" />
        </mxCell>
        <mxCell id="v8akjDSQRyrgU_2qmIEB-2" value="" style="line;strokeWidth=1;fillColor=none;align=left;verticalAlign=middle;spacingTop=-1;spacingLeft=3;spacingRight=3;rotatable=0;labelPosition=right;points=[];portConstraint=eastwest;strokeColor=inherit;" vertex="1" parent="v8akjDSQRyrgU_2qmIEB-0">
          <mxGeometry y="100" width="180" height="8" as="geometry" />
        </mxCell>
        <mxCell id="v8akjDSQRyrgU_2qmIEB-3" value="+ construtor(args)&lt;br&gt;+ Notificacao(args)&amp;nbsp;" style="text;strokeColor=none;fillColor=none;align=left;verticalAlign=top;spacingLeft=4;spacingRight=4;overflow=hidden;rotatable=0;points=[[0,0.5],[1,0.5]];portConstraint=eastwest;whiteSpace=wrap;html=1;" vertex="1" parent="v8akjDSQRyrgU_2qmIEB-0">
          <mxGeometry y="108" width="180" height="42" as="geometry" />
        </mxCell>
        <mxCell id="v8akjDSQRyrgU_2qmIEB-5" style="edgeStyle=orthogonalEdgeStyle;rounded=0;orthogonalLoop=1;jettySize=auto;html=1;endArrow=none;endFill=0;exitX=0.471;exitY=1.015;exitDx=0;exitDy=0;exitPerimeter=0;" edge="1" parent="WIyWlLk6GJQsqaUBKTNV-1" source="v8akjDSQRyrgU_2qmIEB-3">
          <mxGeometry relative="1" as="geometry">
            <mxPoint x="760" y="-716" as="targetPoint" />
            <Array as="points">
              <mxPoint x="760" y="-819" />
            </Array>
            <mxPoint x="760" y="-790" as="sourcePoint" />
          </mxGeometry>
        </mxCell>
        <mxCell id="v8akjDSQRyrgU_2qmIEB-6" value="0..1" style="edgeLabel;html=1;align=center;verticalAlign=middle;resizable=0;points=[];" connectable="0" vertex="1" parent="v8akjDSQRyrgU_2qmIEB-5">
          <mxGeometry x="-0.6116" y="-1" relative="1" as="geometry">
            <mxPoint x="-10" y="-9" as="offset" />
          </mxGeometry>
        </mxCell>
        <mxCell id="v8akjDSQRyrgU_2qmIEB-7" value="0..1" style="edgeLabel;html=1;align=center;verticalAlign=middle;resizable=0;points=[];" connectable="0" vertex="1" parent="v8akjDSQRyrgU_2qmIEB-5">
          <mxGeometry x="0.5569" relative="1" as="geometry">
            <mxPoint x="10" y="14" as="offset" />
          </mxGeometry>
        </mxCell>
      </root>
    </mxGraphModel>
  </diagram>
</mxfile>
